PathFileType	4	(X/Y/Z)	s08c0102.trc
DataRate	CameraRate	NumFrames	NumMarkers	Units	OrigDataRate	OrigDataStartFrame	OrigNumFrames
200	200	7	50	mm	200	500	2000
Frame#	Time	racr			lacr			c7			jug			rlel			rdr			llel			ldr			s2			lic			ric			lasi			rasi			rpsi			lpsi			rgt			lgt			rth1			rth2			rth3			rth4			rlfc			rmfc			rsh1			rsh2			rsh3			rsh4			rlmal			rmmal			rcal			rtoe			rmt5			lth1			lth2			lth4			lth3			llfc			lmfc			llmal			lmmal			lcal			lmt5			lsh1			lsh2			lsh3			lsh4			ltoe			SBIKE			LBIKE			RBIKE			
		X1	Y1	Z1	X2	Y2	Z2	X3	Y3	Z3	X4	Y4	Z4	X5	Y5	Z5	X6	Y6	Z6	X7	Y7	Z7	X8	Y8	Z8	X9	Y9	Z9	X10	Y10	Z10	X11	Y11	Z11	X12	Y12	Z12	X13	Y13	Z13	X14	Y14	Z14	X15	Y15	Z15	X16	Y16	Z16	X17	Y17	Z17	X18	Y18	Z18	X19	Y19	Z19	X20	Y20	Z20	X21	Y21	Z21	X22	Y22	Z22	X23	Y23	Z23	X24	Y24	Z24	X25	Y25	Z25	X26	Y26	Z26	X27	Y27	Z27	X28	Y28	Z28	X29	Y29	Z29	X30	Y30	Z30	X31	Y31	Z31	X32	Y32	Z32	X33	Y33	Z33	X34	Y34	Z34	X35	Y35	Z35	X36	Y36	Z36	X37	Y37	Z37	X38	Y38	Z38	X39	Y39	Z39	X40	Y40	Z40	X41	Y41	Z41	X42	Y42	Z42	X43	Y43	Z43	X44	Y44	Z44	X45	Y45	Z45	X46	Y46	Z46	X47	Y47	Z47	X48	Y48	Z48	X49	Y49	Z49	X50	Y50	Z50	
500	2.5000	594.724829	1314.484534	-147.790703	543.184869	1348.952220	-434.140991	525.124303	1406.658482	-279.556031	512.174106	1249.096048	-300.155233	611.794744	1095.441225	16.610146	803.272780	888.591272	-55.014172	561.195513	1074.682551	-512.844894	799.349191	917.510960	-437.365582	-30.214377	1222.111386	-189.128843	100.217623	1224.255484	-354.073439	155.860368	1197.763474	-49.373709	136.181346	1188.467910	-320.722141	162.248384	1143.398955	-85.305948	12.367707	1256.221579	-134.684902	-2.613354	1272.064210	-223.997158	59.511110	1089.193481	-18.000514	57.587346	1132.283437	-393.935166	174.553039	963.743847	-21.590094	245.681585	910.261516	-26.281035	279.208248	830.323168	-33.520484	272.810866	932.226725	-37.358341	337.531484	729.912623	-47.075791	319.881481	723.863164	-156.788171	245.680226	634.191344	-20.148024	219.040537	551.188254	-44.870126	156.242262	493.251088	-52.479990	245.711751	540.905441	-72.760401	82.907217	401.723117	-62.939920	106.946103	413.385912	-150.230471	8.959061	421.191333	-113.880223	232.573361	225.193865	-103.253328	143.620938	258.816084	-39.079977	151.541151	1033.527999	-410.463618	230.277381	996.170963	-412.820365	254.239424	1022.941666	-403.601791	280.340578	922.722469	-416.845930	364.212006	816.664346	-399.357597	372.160902	789.637930	-292.063270	300.139153	397.719376	-398.955025	323.094086	423.666451	-311.722506	238.806887	350.587302	-360.110723	451.638618	364.324915	-426.242422	347.906799	685.840080	-423.570060	354.310113	601.991573	-406.214661	319.937453	521.327652	-407.403819	376.268122	602.585002	-373.395111	518.622223	422.267968	-360.409790	-139.552009	939.426778	-227.069641	16.958952	79.840758	-427.111042	16.319472	79.686446	-28.824092	
501	2.5050	594.753007	1312.791772	-144.987412	543.521320	1347.629114	-434.456437	525.730101	1405.444323	-278.563222	511.800984	1247.793528	-298.339253	611.547832	1093.699243	18.178894	803.541827	888.155222	-54.528656	560.628780	1073.217872	-513.920296	799.069639	917.005766	-436.902729	-28.567868	1219.432612	-190.707367	101.719901	1221.276689	-356.224272	155.897020	1195.925154	-50.705811	137.501812	1185.429533	-322.310803	162.745408	1141.950480	-86.595728	12.853055	1253.769851	-136.146480	-1.853796	1269.151842	-224.937229	60.744139	1087.430414	-18.388291	58.024024	1127.453643	-395.186928	176.890721	964.689432	-21.992242	248.956257	912.449128	-26.340659	284.137621	832.929225	-32.572099	275.676303	934.786183	-37.779853	344.034784	733.750466	-47.009962	326.608622	727.501319	-156.708801	250.170863	640.132505	-20.183306	221.639827	557.669650	-44.986324	157.490314	501.307692	-52.706458	249.171684	547.363332	-72.114524	82.404954	411.294058	-63.900316	105.379019	422.156936	-151.571302	8.366095	432.395753	-113.931761	229.945746	234.229998	-103.314949	141.305216	268.612911	-39.216594	150.389450	1026.810864	-411.622577	228.536414	988.178572	-414.071967	252.684900	1014.383770	-405.025019	277.329054	913.882708	-417.501017	360.714116	807.660047	-399.970361	369.336061	781.209028	-292.287009	302.703946	387.652134	-399.152708	337.589311	423.342770	-327.676453	241.392704	340.690018	-360.337285	454.343962	353.915829	-426.095495	346.153785	676.596218	-423.983317	353.955588	592.730466	-406.519602	320.628902	511.183764	-406.984052	375.702148	593.739227	-373.630870	521.525426	411.789219	-360.209323	-139.573568	939.399491	-226.993838	16.976799	79.836435	-427.108523	16.333222	79.695402	-28.800742	
502	2.5100	594.586076	1311.381825	-142.291882	545.268513	1347.686288	-437.784707	526.551537	1404.474810	-277.392757	513.000889	1246.737700	-297.275538	611.259082	1091.992934	20.008439	803.684584	887.885769	-54.145595	560.139014	1071.522621	-513.890947	798.780712	916.373600	-436.523712	-27.728556	1217.092921	-192.147682	103.191203	1218.258666	-358.367437	156.032109	1194.349110	-52.148590	139.084486	1182.370769	-324.075538	163.418519	1140.690737	-88.025124	13.334169	1251.653521	-137.648267	-0.271164	1266.314144	-231.231840	62.189684	1085.839126	-19.043489	58.665390	1122.403993	-396.615385	179.233095	965.287661	-22.201196	252.345896	914.491625	-26.157118	289.446752	835.876644	-31.818073	278.562012	937.260376	-37.984122	350.826097	738.022070	-46.963283	327.087667	733.972345	-161.876117	254.883206	646.175697	-20.484599	224.572606	564.451739	-45.175621	159.179521	509.495358	-52.878329	251.700603	553.447883	-72.400301	82.374192	421.680858	-64.091993	106.107765	431.506599	-152.088365	8.304064	443.711624	-113.971440	227.961611	243.440706	-103.331113	139.694504	278.587248	-39.228105	149.466425	1020.005621	-412.966809	226.979663	980.035118	-415.429375	251.546741	1005.981499	-407.118513	274.451847	904.886256	-418.116290	357.206004	798.626280	-400.816619	366.371847	772.703859	-292.648951	304.567331	377.727427	-399.598043	339.216446	413.458585	-328.013796	243.373847	331.029089	-360.666742	456.539126	343.390679	-425.878790	344.175342	667.339816	-424.510785	353.081282	583.566987	-407.161681	321.168858	501.406242	-407.403136	374.738814	584.919135	-373.861931	523.866117	401.123538	-360.050945	-139.562096	939.328678	-226.959789	16.994145	79.828692	-427.096069	16.306265	79.676346	-28.813671	
503	2.5150	594.266611	1310.137359	-139.448251	546.102137	1346.738627	-438.198190	527.432150	1403.792242	-276.367090	512.477983	1246.017677	-295.461695	610.170432	1090.263696	21.863464	803.742048	887.773528	-53.893049	560.158302	1069.661863	-512.733102	798.527464	915.481884	-436.024316	-26.559331	1214.289145	-195.169690	105.133061	1215.382155	-360.976974	156.211064	1193.251488	-53.776396	140.936470	1179.310487	-326.021541	164.147473	1139.837747	-89.570437	13.706065	1249.820026	-139.502162	0.752301	1263.655606	-232.613467	63.776412	1084.630568	-19.823845	59.439531	1117.380015	-398.157577	181.810517	965.895540	-22.069199	255.925885	916.605156	-25.851513	294.591096	838.565069	-31.840625	282.090364	939.751380	-37.816259	357.630138	742.582657	-47.117865	333.849263	738.248599	-161.974989	259.824016	652.659950	-20.713372	227.838627	571.339999	-45.426368	161.264207	517.846679	-53.191948	254.838671	559.947722	-72.527248	82.746929	432.128555	-64.326303	106.495886	441.503993	-152.291905	8.850215	454.870434	-114.012817	226.552780	252.686440	-103.531453	138.643086	288.683987	-39.427809	148.876033	1013.198486	-414.404864	225.630399	971.845470	-416.838661	250.689986	997.476634	-409.111634	271.803894	895.849289	-418.689347	353.186768	788.972119	-400.598190	363.042920	764.043065	-293.291065	305.883792	367.897683	-400.044090	339.903162	403.873950	-328.137918	244.786660	321.484148	-361.064672	458.145944	332.824758	-425.688345	341.822160	657.951973	-424.988456	351.909762	574.278373	-407.634921	321.220552	491.549716	-407.560444	373.401377	575.878334	-374.210966	525.671989	390.208378	-359.657796	-139.468115	939.304726	-227.191124	17.014065	79.784383	-427.093543	16.326347	79.678774	-28.786396	
504	2.5200	593.772912	1309.131017	-136.255963	547.049128	1345.775886	-437.925638	528.363408	1403.540265	-275.442425	511.529337	1245.771917	-293.552092	609.608978	1088.854433	24.049716	803.800254	887.783260	-53.814144	561.701312	1068.690431	-513.108274	798.548877	914.346817	-435.578017	-25.566826	1212.805553	-196.690337	107.245922	1212.702312	-363.819872	156.409704	1192.665510	-55.516893	143.064864	1176.267429	-328.154036	164.998542	1139.305535	-91.223613	14.035975	1248.316749	-141.506926	1.965025	1261.057156	-234.508626	65.483820	1083.549480	-20.789303	60.459901	1112.526984	-399.777288	184.518232	966.581889	-21.956974	259.762242	918.926719	-25.484905	299.852896	841.534695	-31.909025	285.293234	942.457434	-37.951230	364.512337	747.660397	-47.448171	340.864798	742.965636	-162.028123	264.989605	659.100412	-20.956689	231.451041	578.587269	-45.612541	163.838211	526.440798	-53.578908	257.226009	566.304924	-73.475432	83.736870	442.684965	-64.606650	108.192775	451.675191	-151.303847	9.867904	466.268492	-114.184323	225.847081	262.161778	-103.751836	138.233644	299.021361	-39.539090	148.583095	1006.599747	-415.799684	224.478957	963.661448	-418.194028	250.121034	988.967404	-411.043266	269.183170	886.805535	-419.433622	350.552647	781.175311	-404.182416	359.123971	755.147230	-294.355193	306.711594	358.114136	-400.602221	340.922344	394.130548	-328.876551	245.598496	312.203346	-361.575997	459.245669	322.076941	-425.425729	339.117736	648.455290	-425.467569	350.277078	564.963925	-408.209344	320.596888	481.845832	-408.070562	371.750432	566.959102	-374.889770	526.960691	379.038360	-359.276860	-139.406236	939.294253	-227.399933	17.038761	79.746081	-427.095299	16.353485	79.661364	-28.828213	
505	2.5250	593.084499	1308.437955	-132.624910	548.201399	1345.314183	-437.658902	529.335397	1403.587573	-274.368118	510.675474	1245.845720	-291.479895	608.933804	1087.652119	26.228181	803.891696	887.876392	-53.791445	563.915882	1068.278662	-513.321978	798.990154	912.572130	-434.812137	-24.344658	1211.233336	-199.044224	109.722999	1210.183323	-366.959518	156.587697	1192.561492	-57.395757	145.476797	1173.260340	-330.478278	165.864440	1139.058954	-93.077490	14.302887	1247.264776	-144.015327	3.375689	1258.819706	-237.303601	67.285626	1083.014304	-21.964585	61.811734	1107.761515	-401.498994	187.582510	967.671773	-21.900294	263.814466	921.626833	-25.211069	305.653739	845.140542	-32.136659	288.923627	945.683271	-37.792217	371.027577	752.670920	-47.874142	353.889558	745.300703	-156.978021	270.422623	666.035071	-21.159359	235.450435	586.136875	-45.895650	166.868120	535.182096	-53.893244	260.983219	573.314921	-73.752423	85.220900	453.312155	-64.900727	109.614742	461.952708	-151.621606	11.357266	477.660320	-114.388398	225.667196	271.936152	-103.785060	138.530170	309.339561	-39.671718	148.533588	1000.079652	-417.285505	223.606942	955.596798	-419.585911	250.034797	981.151428	-414.574997	266.695834	877.849008	-420.101010	355.221735	776.753337	-413.497288	354.389661	745.937056	-295.983274	307.003934	348.488678	-401.356161	340.832306	384.585103	-329.349339	245.787507	303.134859	-362.292343	459.811330	311.241546	-425.218082	336.079711	638.867357	-425.952757	348.165179	555.772341	-408.942235	319.351413	472.276065	-408.786742	369.603582	557.867809	-375.486752	527.767322	367.805818	-358.889428	-139.357442	939.224627	-227.644902	17.039414	79.660838	-427.146625	16.350505	79.655695	-28.843566	
506	2.5300	592.234315	1308.335083	-128.538151	549.639670	1345.210039	-437.085652	530.365516	1403.848561	-273.229733	510.120498	1246.103400	-289.087094	608.205664	1086.660541	28.363700	804.032119	887.993694	-53.821483	566.531682	1068.495793	-513.489362	799.455423	911.404202	-434.538327	-22.904197	1209.883706	-202.073684	112.475685	1207.747817	-370.100366	156.640230	1192.816590	-59.463768	148.179325	1170.308209	-332.999495	166.705613	1139.229579	-95.028196	14.802868	1246.458535	-147.192090	4.937976	1256.841168	-240.732212	69.363522	1083.172173	-22.958938	63.459175	1103.245650	-403.329172	190.677921	968.958888	-22.345661	268.146477	924.847806	-25.314223	311.589445	849.331404	-31.701955	292.297161	949.447657	-38.040412	377.617279	758.354911	-48.152724	362.685656	755.211906	-166.546580	276.015019	673.303366	-21.477729	239.574167	593.894925	-46.377374	170.155241	544.173147	-54.389714	264.963236	580.573617	-74.248349	87.187804	463.898431	-65.261266	111.506454	472.350858	-151.945573	13.317194	488.729716	-114.652544	226.174099	281.819522	-103.930947	139.306608	319.864814	-39.943090	148.757066	993.784524	-418.795560	222.870181	947.710005	-420.936656	249.831476	972.695255	-416.188078	264.307407	869.002783	-420.673340	350.917821	767.435241	-413.876810	348.614650	736.333125	-298.317211	306.772781	338.979536	-402.220339	340.070258	375.270070	-329.918453	245.451194	294.300633	-363.169234	459.764654	300.569331	-425.086526	332.531582	629.596098	-426.594010	345.661340	546.598481	-409.514470	317.987095	462.678000	-409.415666	367.023079	549.182266	-376.378163	528.120280	356.417517	-358.437204	-139.254099	939.204481	-227.950463	17.070873	79.602275	-427.173675	16.367437	79.645155	-28.870380	
